<?xml version="1.0" standalone="no"?>
<!DOCTYPE svg PUBLIC "-//W3C//DTD SVG 20010904//EN"
 "http://www.w3.org/TR/2001/REC-SVG-20010904/DTD/svg10.dtd">
<svg version="1.0" xmlns="http://www.w3.org/2000/svg"
 width="640.000000pt" height="640.000000pt" viewBox="0 0 640.000000 640.000000"
 preserveAspectRatio="xMidYMid meet">
<metadata>
Created by potrace 1.14, written by Peter Selinger 2001-2017
</metadata>
<g transform="translate(0.000000,640.000000) scale(0.100000,-0.100000)"
fill="#000000" stroke="none">
<path d="M3385 5915 c-147 -32 -323 -115 -443 -207 -71 -55 -163 -164 -203
-242 l-32 -61 -166 0 c-179 0 -249 -14 -366 -72 -183 -92 -358 -300 -430 -513
-18 -54 -26 -65 -46 -68 -61 -6 -160 -39 -225 -74 l-72 -39 -46 65 c-64 89
-146 160 -244 208 -78 39 -88 42 -190 46 -102 3 -110 2 -162 -25 -70 -36 -120
-105 -120 -167 0 -51 40 -119 96 -162 31 -24 59 -34 136 -47 118 -21 187 -46
267 -97 43 -28 59 -44 55 -55 -5 -13 -40 -15 -254 -15 -201 0 -250 -3 -259
-14 -21 -25 43 -140 121 -220 38 -37 68 -69 68 -70 0 -1 -26 -15 -59 -30 -71
-32 -157 -104 -200 -167 -96 -138 -74 -311 56 -429 148 -136 406 -201 733
-185 85 4 168 8 184 9 26 1 30 -4 45 -50 50 -151 156 -245 346 -309 90 -31
250 -44 323 -27 41 10 43 9 72 -26 l30 -37 0 -965 c0 -1071 -4 -1010 64 -1010
20 0 40 8 50 19 16 18 17 82 16 918 0 495 2 902 6 906 3 3 36 -9 73 -28 72
-37 147 -59 234 -70 60 -8 219 10 281 32 21 7 40 13 42 13 2 0 5 -439 6 -976
l3 -976 24 -19 c30 -24 52 -24 85 2 l26 20 0 970 c0 560 4 969 9 969 5 0 30
-18 57 -40 154 -127 326 -157 557 -94 50 13 102 27 115 30 l22 6 0 -819 c0
-910 -4 -863 65 -863 46 0 77 40 74 95 -1 22 -1 410 0 863 1 670 3 824 14 828
7 2 40 -11 72 -31 116 -69 155 -80 303 -79 l132 0 0 -917 0 -918 26 -20 c35
-27 59 -26 89 4 l25 24 0 948 0 948 69 43 c114 70 191 167 231 291 l22 68 60
17 c142 39 258 133 322 259 66 129 93 330 62 460 -12 53 -12 59 3 64 127 46
198 100 237 180 23 47 28 69 28 137 0 67 -6 94 -32 161 -52 132 -117 191 -194
179 l-35 -6 -23 71 c-46 143 -147 285 -257 362 l-43 30 0 92 c0 171 -37 325
-102 435 -50 82 -158 179 -245 219 -108 50 -201 66 -378 66 -181 0 -278 -18
-389 -71 l-79 -38 -96 96 c-78 77 -112 103 -181 138 -47 23 -112 49 -145 57
-73 18 -237 18 -320 0z m240 -135 c142 -23 257 -94 365 -227 35 -43 70 -84 79
-90 23 -20 54 -15 92 13 52 40 167 91 233 103 89 16 329 14 405 -4 138 -33
240 -105 301 -210 51 -90 72 -183 76 -345 2 -80 6 -155 9 -167 3 -12 27 -33
57 -51 160 -90 285 -326 264 -496 -9 -67 -51 -156 -105 -221 -50 -60 -53 -92
-12 -144 108 -138 139 -264 107 -435 -17 -87 -47 -161 -90 -219 -49 -67 -173
-132 -288 -152 -45 -7 -55 -23 -74 -112 -26 -127 -98 -216 -231 -285 -184 -97
-319 -88 -496 33 -40 27 -80 49 -89 49 -9 0 -45 -23 -80 -51 -121 -97 -262
-149 -409 -149 -146 0 -263 59 -351 178 -24 31 -50 62 -58 69 -28 23 -71 15
-114 -21 -85 -70 -173 -96 -315 -96 -174 0 -328 84 -441 239 -25 34 -55 64
-67 67 -12 3 -51 -1 -86 -10 -85 -22 -168 -20 -256 4 -94 26 -142 51 -198 103
-51 47 -101 135 -81 141 7 2 49 9 93 16 109 15 216 52 311 106 100 57 144 100
188 183 58 111 69 173 63 351 -3 85 -11 183 -18 218 -12 60 -12 64 15 120 39
82 34 96 -34 100 l-55 3 -37 65 c-21 36 -36 70 -33 74 24 39 254 120 340 120
24 0 47 11 81 40 66 54 94 103 94 163 0 59 -17 93 -69 140 -126 114 -378 74
-550 -87 -44 -42 -70 -75 -147 -184 -2 -2 -34 4 -73 14 -82 21 -81 16 -26 129
147 303 427 447 767 394 94 -15 108 -7 151 83 90 186 229 310 437 389 133 51
247 67 355 49z m-1010 -895 c31 -30 31 -37 1 -66 -17 -16 -46 -27 -95 -35
-116 -20 -201 -50 -288 -103 -48 -29 -85 -46 -89 -40 -3 6 6 28 21 50 91 138
224 218 363 219 54 0 66 -4 87 -25z m-1565 -98 c66 -32 145 -99 195 -167 57
-77 43 -87 -44 -34 -96 59 -149 79 -273 104 -104 22 -122 29 -139 62 -8 14 -4
24 16 44 25 25 31 26 108 22 61 -3 96 -11 137 -31z m869 -196 c33 -10 80 -30
104 -44 44 -26 116 -97 136 -136 l12 -21 -411 0 c-469 0 -441 -7 -335 88 62
55 145 99 220 118 78 19 204 17 274 -5z m-725 -363 c-42 -62 -84 -121 -92
-131 -19 -22 -67 -19 -66 3 1 9 34 66 74 128 l72 112 45 0 45 0 -78 -112z
m854 -28 c-92 -140 -92 -140 -131 -140 -21 0 -36 3 -34 8 68 120 152 254 165
262 9 5 34 10 54 10 l37 0 -91 -140z m3670 83 c35 -70 54 -140 46 -177 -10
-55 -55 -110 -115 -140 -69 -34 -82 -33 -104 7 l-18 33 37 56 c40 60 85 177
86 220 0 25 10 35 37 37 7 1 21 -16 31 -36z m-4181 -184 c83 -36 254 -79 355
-90 128 -14 220 -1 310 45 38 19 70 31 73 27 2 -5 7 -61 11 -127 7 -135 -6
-209 -54 -297 -47 -86 -183 -165 -342 -197 -128 -26 -537 -54 -665 -45 -195
13 -316 46 -425 116 -51 33 -66 49 -87 95 -33 73 -28 124 18 189 66 92 188
151 469 225 80 21 168 47 195 59 64 26 83 26 142 0z"/>
<path d="M1760 3775 c-124 -13 -366 -37 -538 -54 -172 -17 -318 -33 -323 -36
-14 -9 -11 -32 5 -38 10 -4 853 74 1131 105 22 2 30 8 30 23 0 28 -33 28 -305
0z"/>
</g>
</svg>
